#!OML:ASF H:\BabyWalks\Project 1\Capture day 1\Session 1\baby.ASF
:FULLY-SPECIFIED
:DEGREES
425
root 5.15956 17.764 -0.365758 -162.328 80.7332 -172.878
lowerback 20.2172 -2.07337 6.18092
upperback 4.47243 -0.678987 4.11516
thorax -6.48027 -0.222176 1.08045
lowerneck -1.22546 -2.02778 8.75699
upperneck -1.17574 -2.84753 -9.46887
head -0.454679 -1.43698 -4.73236
rclavicle 2.94201e-014 1.59028e-015
rhumerus -58.0842 2.84821 -78.1645
rradius 35.0139
rwrist 4.3601
rhand -2.31624 -17.9816
rfingers 7.12502
rthumb 23.37 -46.5828
lclavicle 2.94201e-014 1.59028e-015
lhumerus -51.8782 -4.5103 82.1093
lradius 58.9667
lwrist -0.394656
lhand -14.2877 11.3544
lfingers 7.12502
lthumb 11.8517 40.999
rfemur -25.2123 3.60245 22.5819
rtibia 33.4809
rfoot -17.1075 -11.42
rtoes 2.18111
lfemur -22.9444 5.22134 -10.329
ltibia 62.7385
lfoot -3.39519 -19.5373
ltoes -13.5685
426
root 5.33306 17.7454 -0.364812 -162.871 81.046 -173.499
lowerback 20.2895 -1.82544 6.13507
upperback 4.49964 -0.352216 4.1847
thorax -6.47994 -0.0618945 1.09866
lowerneck -1.24042 -2.03965 8.85796
upperneck -1.11613 -2.86806 -9.98799
head -0.398918 -1.44294 -4.43414
rclavicle 1.27222e-014 4.77083e-015
rhumerus -57.3511 2.84429 -77.8801
rradius 34.4788
rwrist 5.75851
rhand -3.68974 -18.0077
rfingers 7.12502
rthumb 22.0519 -46.7704
lclavicle 1.27222e-014 4.77083e-015
lhumerus -52.4709 -4.35649 82.5849
lradius 57.3282
lwrist -0.965523
lhand -14.5218 11.8893
lfingers 7.12502
lthumb 11.626 41.5468
rfemur -24.9418 3.69817 22.5609
rtibia 34.0483
rfoot -17.7998 -11.3045
rtoes 1.55068
lfemur -24.0199 5.33819 -10.6017
ltibia 63.9282
lfoot -4.66101 -18.2607
ltoes -13.1458
427
root 5.50639 17.7337 -0.364868 -163.898 81.4253 -174.555
lowerback 20.4488 -1.57208 5.99292
upperback 4.52911 -0.0357099 4.20844
thorax -6.52438 0.0932046 1.12552
lowerneck -1.21376 -2.042 8.99924
upperneck -1.03818 -2.86716 -10.1442
head -0.384644 -1.4422 -4.50553
rclavicle 1.82882e-014 3.97569e-014
rhumerus -56.6976 2.86493 -77.648
rradius 34.1438
rwrist 7.10119
rhand -5.45181 -18.0236
rfingers 7.12502
rthumb 20.3593 -46.9764
lclavicle 1.82882e-014 3.97569e-014
lhumerus -53.1095 -4.26878 83.0471
lradius 55.6893
lwrist -1.62694
lhand -14.4231 12.3577
lfingers 7.12502
lthumb 11.7211 42.0097
rfemur -24.5395 3.88127 22.4386
rtibia 34.4566
rfoot -18.4608 -11.1826
rtoes 0.983761
lfemur -24.9736 5.4498 -11.0064
ltibia 64.7463
lfoot -6.01292 -17.0181
ltoes -12.7648
428
root 5.67921 17.7281 -0.366396 -165.117 81.8271 -175.769
lowerback 20.6732 -1.32532 5.83453
upperback 4.56056 0.270924 4.19906
thorax -6.60245 0.242758 1.12818
lowerneck -1.16765 -2.04446 9.12552
upperneck -0.970659 -2.86518 -10.2667
head -0.375846 -1.44047 -4.56388
rclavicle -4.45278e-014 -6.99722e-014
rhumerus -56.1281 2.90867 -77.4921
rradius 34.0017
rwrist 8.2795
rhand -7.60324 -18.0054
rfingers 7.12502
rthumb 18.2906 -47.1655
lclavicle -4.45278e-014 -6.99722e-014
lhumerus -53.7857 -4.25201 83.4916
lradius 54.0827
lwrist -2.35932
lhand -13.9374 12.6967
lfingers 7.12502
lthumb 12.1894 42.3215
rfemur -24.0185 4.15349 22.2754
rtibia 34.7041
rfoot -19.0545 -11.0959
rtoes 0.554612
lfemur -25.8422 5.53627 -11.472
ltibia 65.2213
lfoot -7.41458 -15.812
ltoes -12.4345
429
root 5.85144 17.7279 -0.369471 -166.255 82.2223 -176.888
lowerback 20.9332 -1.09022 5.71552
upperback 4.59167 0.571373 4.16863
thorax -6.70016 0.388104 1.08628
lowerneck -1.13334 -2.05224 9.22176
upperneck -0.911028 -2.87108 -10.346
head -0.367179 -1.44296 -4.60407
rclavicle -7.15625e-015 -2.06736e-014
rhumerus -55.6412 2.97967 -77.4302
rradius 34.0267
rwrist 9.20386
rhand -10.1129 -17.9272
rfingers 7.12502
rthumb 15.875 -47.2965
lclavicle -7.15625e-015 -2.06736e-014
lhumerus -54.4965 -4.30533 83.9159
lradius 52.547
lwrist -3.10995
lhand -13.036 12.8634
lfingers 7.12502
lthumb 13.0585 42.4346
rfemur -23.4111 4.4924 22.1238
rtibia 34.7973
rfoot -19.6234 -11.0206
rtoes 0.305508
lfemur -26.6662 5.58408 -11.9434
ltibia 65.3796
lfoot -8.8318 -14.6402
ltoes -12.1757
430
root 6.02322 17.7328 -0.374213 -167.232 82.5967 -177.861
lowerback 21.2031 -0.871268 5.64932
upperback 4.61719 0.860746 4.12081
thorax -6.80869 0.526531 0.996894
lowerneck -1.13704 -2.06156 9.27791
upperneck -0.844724 -2.8808 -10.377
head -0.349449 -1.44839 -4.62322
rclavicle 7.95139e-016 -1.27222e-014
rhumerus -55.2354 3.08387 -77.4633
rradius 34.2028
rwrist 9.79549
rhand -12.8505 -17.7797
rfingers 7.12502
rthumb 13.2373 -47.3393
lclavicle 7.95139e-016 -1.27222e-014
lhumerus -55.2441 -4.41093 84.3111
lradius 51.109
lwrist -3.83125
lhand -11.7358 12.8331
lfingers 7.12502
lthumb 14.3116 42.3198
rfemur -22.7562 4.86325 21.9988
rtibia 34.7541
rfoot -20.0701 -10.9779
rtoes -0.0119762
lfemur -27.4742 5.57898 -12.4094
ltibia 65.2333
lfoot -10.2248 -13.5036
ltoes -11.9819
431
root 6.19477 17.7429 -0.380787 -168.005 82.9484 -178.661
lowerback 21.4557 -0.669577 5.64308
upperback 4.64014 1.13646 4.05298
thorax -6.90914 0.656858 0.853606
lowerneck -1.21153 -2.07 9.30009
upperneck -0.758147 -2.89297 -10.3685
head -0.313354 -1.45696 -4.62562
rclavicle -7.15625e-015 -2.22639e-014
rhumerus -54.8994 3.23012 -77.5978
rradius 34.5066
rwrist 10.011
rhand -15.7053 -17.5454
rfingers 7.12502
rthumb 10.4845 -47.264
lclavicle -7.15625e-015 -2.22639e-014
lhumerus -56.0171 -4.5568 84.6653
lradius 49.7737
lwrist -4.48818
lhand -10.1026 12.5895
lfingers 7.12502
lthumb 15.8848 41.958
rfemur -22.084 5.24145 21.9023
rtibia 34.596
rfoot -20.416 -10.9464
rtoes -0.418252
lfemur -28.2798 5.51007 -12.8656
ltibia 64.792
lfoot -11.5468 -12.3738
ltoes -11.8215
432
root 6.36651 17.7588 -0.389014 -168.649 83.2817 -179.371
lowerback 21.6734 -0.484094 5.67541
upperback 4.66258 1.39377 3.96618
thorax -6.98971 0.777307 0.671223
lowerneck -1.33999 -2.07305 9.27788
upperneck -0.669051 -2.90117 -10.3179
head -0.265993 -1.46486 -4.60844
rclavicle -2.06736e-014 -6.52014e-014
rhumerus -54.6244 3.43006 -77.8197
rradius 34.9161
rwrist 9.85315
rhand -18.5086 -17.2196
rfingers 7.12502
rthumb 7.77944 -47.0565
lclavicle -2.06736e-014 -6.52014e-014
lhumerus -56.8073 -4.71471 84.9729
lradius 48.547
lwrist -5.02776
lhand -8.16168 12.2021
lfingers 7.12502
lthumb 17.7533 41.4117
rfemur -21.4212 5.59837 21.8202
rtibia 34.3475
rfoot -20.6596 -10.8976
rtoes -0.940553
lfemur -29.0787 5.37406 -13.322
ltibia 64.056
lfoot -12.7551 -11.2453
ltoes -11.6609
433
root 6.53875 17.7795 -0.398557 -169.229 83.5984 -180.056
lowerback 21.8535 -0.31327 5.72998
upperback 4.68299 1.6309 3.8602
thorax -7.05053 0.887257 0.459794
lowerneck -1.49608 -2.06916 9.22608
upperneck -0.5944 -2.90243 -10.2461
head -0.216875 -1.4698 -4.58025
rclavicle -2.3059e-014 -4.45278e-014
rhumerus -54.4107 3.66688 -78.1044
rradius 35.4231
rwrist 9.35576
rhand -21.0824 -16.8025
rfingers 7.12502
rthumb 5.2948 -46.7163
lclavicle -2.3059e-014 -4.45278e-014
lhumerus -57.6103 -4.87688 85.2358
lradius 47.4151
lwrist -5.40523
lhand -6.01103 11.7346
lfingers 7.12502
lthumb 19.8218 40.7439
rfemur -20.7705 5.90647 21.747
rtibia 34.0276
rfoot -20.8098 -10.8137
rtoes -1.58316
lfemur -29.8626 5.17199 -13.7812
ltibia 63.0375
lfoot -13.8413 -10.129
ltoes -11.5839
434
root 6.71166 17.8039 -0.409204 -169.775 83.9042 -180.743
lowerback 21.9927 -0.157533 5.78741
upperback 4.7027 1.84305 3.73864
thorax -7.08906 0.984982 0.236067
lowerneck -1.67268 -2.05656 9.16235
upperneck -0.540694 -2.89433 -10.173
head -0.169389 -1.47034 -4.54993
rclavicle 1.43125e-014 5.56597e-014
rhumerus -54.2495 3.93178 -78.4241
rradius 36.0241
rwrist 8.56585
rhand -23.2912 -16.3112
rfingers 7.12502
rthumb 3.16189 -46.2675
lclavicle 1.43125e-014 5.56597e-014
lhumerus -58.4172 -5.0175 85.4481
lradius 46.3854
lwrist -5.62652
lhand -3.63147 11.3512
lfingers 7.12502
lthumb 22.1078 40.1073
rfemur -20.1303 6.15337 21.679
rtibia 33.6513
rfoot -20.8776 -10.6778
rtoes -2.32856
lfemur -30.623 4.91264 -14.2399
ltibia 61.7524
lfoot -14.7901 -9.04411
ltoes -11.5758
435
root 6.88579 17.8303 -0.420531 -170.268 84.1961 -181.404
lowerback 22.0842 -0.0139818 5.84083
upperback 4.71713 2.03228 3.6053
thorax -7.10723 1.07154 0.00811591
lowerneck -1.81021 -2.03738 9.09828
upperneck -0.531826 -2.87684 -10.1091
head -0.140645 -1.4649 -4.52162
rclavicle -5.56597e-015 1.11319e-014
rhumerus -54.1483 4.2006 -78.7505
rradius 36.7155
rwrist 7.54038
rhand -25.0028 -15.7854
rfingers 7.12502
rthumb 1.50885 -45.7598
lclavicle -5.56597e-015 1.11319e-014
lhumerus -59.2312 -5.14297 85.6194
lradius 45.4465
lwrist -5.7159
lhand -1.08338 11.1503
lfingers 7.12502
lthumb 24.5523 39.5961
rfemur -19.4869 6.33036 21.6219
rtibia 33.2237
rfoot -20.8772 -10.4947
rtoes -3.20029
lfemur -31.3538 4.59956 -14.6851
ltibia 60.2268
lfoot -15.5983 -8.01281
ltoes -11.5901
436
root 7.06168 17.8581 -0.431932 -170.648 84.4769 -181.967
lowerback 22.1345 0.121823 5.882
upperback 4.72847 2.2038 3.46549
thorax -7.10665 1.14986 -0.214671
lowerneck -1.89404 -2.01338 9.05021
upperneck -0.573039 -2.85195 -10.0613
head -0.135114 -1.45417 -4.49994
rclavicle -1.90833e-014 -4.45278e-014
rhumerus -54.1002 4.43572 -79.0574
rradius 37.4852
rwrist 6.3647
rhand -26.1578 -15.2687
rfingers 7.12502
rthumb 0.393364 -45.2481
lclavicle -1.90833e-014 -4.45278e-014
lhumerus -60.0418 -5.26308 85.7613
lradius 44.5777
lwrist -5.72829
lhand 1.54596 11.1687
lfingers 7.12502
lthumb 27.0703 39.2482
rfemur -18.8278 6.44726 21.5843
rtibia 32.7436
rfoot -20.8071 -10.2676
rtoes -4.14092
lfemur -32.0398 4.24919 -15.1022
ltibia 58.4869
lfoot -16.2978 -7.06299
ltoes -11.711
437
root 7.23967 17.8862 -0.442968 -170.792 84.7492 -182.306
lowerback 22.1405 0.252901 5.90332
upperback 4.73605 2.36085 3.33043
thorax -7.08735 1.22188 -0.416271
lowerneck -1.92794 -1.98143 9.01223
upperneck -0.646143 -2.81457 -10.0327
head -0.146322 -1.43579 -4.48505
rclavicle -1.19271e-014 1.59028e-015
rhumerus -54.0955 4.63424 -79.3252
rradius 38.3191
rwrist 5.0938
rhand -26.7656 -14.8107
rfingers 7.12502
rthumb -0.193708 -44.7903
lclavicle -1.19271e-014 1.59028e-015
lhumerus -60.8463 -5.37079 85.8882
lradius 43.7803
lwrist -5.70764
lhand 4.2022 11.4579
lfingers 7.12502
lthumb 29.6087 39.1153
rfemur -18.141 6.51184 21.5783
rtibia 32.2039
rfoot -20.6715 -10.0038
rtoes -5.12214
lfemur -32.6843 3.88008 -15.4747
ltibia 56.5649
lfoot -16.8935 -6.21553
ltoes -11.9266
438
root 7.42009 17.914 -0.453356 -170.672 85.0146 -182.388
lowerback 22.1066 0.380192 5.8964
upperback 4.74039 2.50368 3.20367
thorax -7.05213 1.28797 -0.587938
lowerneck -1.92553 -1.93676 8.98551
upperneck -0.728146 -2.75807 -10.0247
head -0.164693 -1.40689 -4.4779
rclavicle -1.82882e-014 -3.18055e-015
rhumerus -54.1197 4.78935 -79.5418
rradius 39.1955
rwrist 3.78951
rhand -26.8627 -14.4458
rfingers 7.12502
rthumb -0.287468 -44.4253
lclavicle -1.82882e-014 -3.18055e-015
lhumerus -61.6409 -5.46922 86.0122
lradius 43.0505
lwrist -5.70258
lhand 6.81078 11.971
lfingers 7.12502
lthumb 32.0956 39.1578
rfemur -17.4183 6.53461 21.6012
rtibia 31.5969
rfoot -20.473 -9.69947
rtoes -6.07237
lfemur -33.284 3.50428 -15.8005
ltibia 54.4882
lfoot -17.4044 -5.47751
ltoes -12.2013
